# xmcd
#
# Track frame offsets:
#	150
#	11439
#	21828
#	30485
#	45260
#	59234
#	67617
#	79617
#	90325
#	103228
#	112862
#	125588
#	135437
#	145112
#	154753
#	169905
#
# Disc length: 2407 seconds
#
# Revision: 1
# Processed by: cddbd v1.5.2PL0 Copyright (c) Steve Scherf et al.
# Submitted via: audiograbber 1.83.01
#
DISCID=c0096510
DTITLE=Various Artist - The Bluegrass Hall Of Fame
DYEAR=1991
DGENRE=Bluegrass
TTITLE0=Beautiful Blue Eyes
TTITLE1=Let Me Whisper
TTITLE2=Fallen Leaves
TTITLE3=Sunrise
TTITLE4=Rank Strangers To Me
TTITLE5=String's Mountain Dew
TTITLE6=Foggy Mountain Breakdown
TTITLE7=Home Sweet Home
TTITLE8=Run Mountain
TTITLE9=My Gal's A High Born Lady
TTITLE10=Old Rattler
TTITLE11=Hills Of Georgia
TTITLE12=Walking in My Sleep
TTITLE13=The Moon Saw Me Crying
TTITLE14=Tramp On The Street
TTITLE15=Windy Mountain
EXTD=
EXTT0=
EXTT1=
EXTT2=
EXTT3=
EXTT4=
EXTT5=
EXTT6=
EXTT7=
EXTT8=
EXTT9=
EXTT10=
EXTT11=
EXTT12=
EXTT13=
EXTT14=
EXTT15=
PLAYORDER=
